<svg width="20" height="20" viewBox="0 0 20 20" fill="none" xmlns="http://www.w3.org/2000/svg">
<g id="Icons/Google Color">
<path id="Vector" d="M18 10.1851C18 9.49996 17.9444 8.99996 17.8241 8.48145H10V11.574H14.5926C14.5 12.3425 14 13.5 12.8889 14.2777L12.8733 14.3812L15.3471 16.2977L15.5185 16.3148C17.0926 14.861 18 12.7222 18 10.1851Z" fill="#4285F4"/>
<path id="Vector_2" d="M10.0001 18.3336C12.2501 18.3336 14.139 17.5928 15.5186 16.3151L12.889 14.278C12.1853 14.7688 11.2408 15.1113 10.0001 15.1113C7.79643 15.1113 5.92608 13.6577 5.25935 11.6484L5.16162 11.6567L2.5893 13.6475L2.55566 13.741C3.92602 16.4632 6.74084 18.3336 10.0001 18.3336Z" fill="#34A853"/>
<path id="Vector_3" d="M5.25955 11.6482C5.08362 11.1297 4.98181 10.5741 4.98181 10.0001C4.98181 9.42595 5.08362 8.87041 5.25029 8.3519L5.24563 8.24147L2.64108 6.21875L2.55586 6.25928C1.99107 7.38893 1.66699 8.65747 1.66699 10.0001C1.66699 11.3426 1.99107 12.6111 2.55586 13.7408L5.25955 11.6482Z" fill="#FBBC05"/>
<path id="Vector_4" d="M10.0001 4.88919C11.5649 4.88919 12.6204 5.56511 13.2223 6.12996L15.5742 3.83366C14.1298 2.49107 12.2501 1.66699 10.0001 1.66699C6.74084 1.66699 3.92602 3.53735 2.55566 6.25954L5.25009 8.35216C5.92608 6.34291 7.79643 4.88919 10.0001 4.88919Z" fill="#EB4335"/>
</g>
</svg>
